<mxfile host="app.diagrams.net" modified="2023-04-28T07:02:55.929Z" agent="Mozilla/5.0 (Windows NT 10.0; Win64; x64) AppleWebKit/537.36 (KHTML, like Gecko) Chrome/112.0.0.0 Safari/537.36" version="21.2.3" etag="cfgNRiXIL3ac72XUZzAD" type="github">
  <diagram name="Sivu-1" id="4pzJ0tkZv33Hd_87S9qE">
    <mxGraphModel>
      <root>
        <mxCell id="0" />
        <mxCell id="1" parent="0" />
      </root>
    </mxGraphModel>
  </diagram>
</mxfile>
